<?xml version="1.0" standalone="no"?><!DOCTYPE svg PUBLIC "-//W3C//DTD SVG 1.1//EN" "http://www.w3.org/Graphics/SVG/1.1/DTD/svg11.dtd"><svg t="1576208662171" class="icon" viewBox="0 0 1024 1024" version="1.1" xmlns="http://www.w3.org/2000/svg" p-id="5783" xmlns:xlink="http://www.w3.org/1999/xlink" width="200" height="200"><defs><style type="text/css"></style></defs><path d="M512.104171 743.780264L857.743235 167.715158 313.971109 706.278739l39.793286 90.212004z" fill="#29B6F6" p-id="5784"></path><path d="M272.927772 686.069583l3.541811 7.708647 81.878332 173.548728c6.041913 12.917192 17.709054 22.917599 31.251271 26.876094 13.333876 3.958494 26.667752 1.041709 35.418108-7.500305 35.209766-34.376399 89.170295-88.336928 87.086877-90.420346L272.927772 686.069583z" fill="#29B6F6" p-id="5785"></path><path d="M158.339776 537.730214c-16.250661 9.375381-26.251068 27.084435-25.626043 45.835198 0.416684 18.959105 11.250458 36.043133 28.126145 44.585148l183.965819 93.753814 512.937538-554.189216-437.309461 592.940793 251.676908 128.338556c15.833978 8.125331 35.001424 8.542014 51.252085 0.625025 16.250661-7.916989 27.709461-22.917599 31.251272-40.626653L891.077925 150.006104c1.458393-7.083622-1.458393-14.375585-7.500305-18.542421-3.958494-2.708444-8.542014-3.958494-12.917193-3.333469l-1.041709 0.208341c-2.083418 0.416684-3.958494 1.041709-5.83357 2.29176L158.339776 537.730214z" fill="#4FC3F7" p-id="5786"></path></svg>